<?xml version="1.0" encoding="UTF-8"?><svg id="Capa_1" xmlns="http://www.w3.org/2000/svg" viewBox="0 0 157.3 106.75"><defs><style>.cls-1{stroke-width:6px;}.cls-1,.cls-2,.cls-3{stroke:#1d1d1b;stroke-miterlimit:10;}.cls-2{fill:#fff;stroke-width:8.49px;}.cls-3{stroke-width:8.02px;}</style></defs><polygon class="cls-2" points="105.26 62.15 4.4 61.8 4.4 4.26 105.26 4.6 105.26 62.15"/><polygon class="cls-3" points="146.73 102.74 43.01 102.74 9.54 68.61 108.19 68.61 146.73 102.74"/><polygon class="cls-1" points="31.09 24.75 31.7 24.96 32.22 24.57 32.21 25.22 32.74 25.59 32.12 25.78 31.93 26.4 31.56 25.87 30.91 25.88 31.3 25.36 31.09 24.75"/><polygon class="cls-1" points="98.92 30.01 94.59 33.86 89.09 32.04 87.92 26.36 92.25 22.51 97.75 24.34 98.92 30.01"/><ellipse class="cls-1" cx="55.93" cy="44.95" rx="5.48" ry="3.27"/></svg>